<?xml version="1.0" standalone="no"?>
<!DOCTYPE svg PUBLIC "-//W3C//DTD SVG 20010904//EN"
 "http://www.w3.org/TR/2001/REC-SVG-20010904/DTD/svg10.dtd">
<svg version="1.0" xmlns="http://www.w3.org/2000/svg"
 width="240.000000pt" height="240.000000pt" viewBox="0 0 240.000000 240.000000"
 preserveAspectRatio="xMidYMid meet">
<metadata>
Created by potrace 1.11, written by Peter Selinger 2001-2013
</metadata>
<g transform="translate(0.000000,240.000000) scale(0.100000,-0.100000)"
fill="#000000" stroke="none">
<path d="M0 1200 l0 -1200 1200 0 1200 0 0 1200 0 1200 -1200 0 -1200 0 0
-1200z m1350 675 l0 -75 150 0 150 0 0 -75 0 -75 225 0 225 0 0 -75 0 -75 75
0 75 0 0 -150 0 -150 -75 0 -75 0 0 -150 0 -150 -75 0 -75 0 0 -150 0 -150
-75 0 -75 0 0 -75 0 -75 -75 0 -75 0 0 -75 0 -75 -450 0 -450 0 0 75 0 75 -75
0 -75 0 0 75 0 75 -75 0 -75 0 0 -150 0 -150 -75 0 -75 0 0 -75 0 -75 -75 0
-75 0 0 75 0 75 75 0 75 0 0 450 0 450 -75 0 -75 0 0 150 0 150 75 0 75 0 0
150 0 150 75 0 75 0 0 75 0 75 450 0 450 0 0 -75z"/>
<path d="M900 975 l0 -225 75 0 75 0 0 225 0 225 -75 0 -75 0 0 -225z"/>
<path d="M1350 975 l0 -225 75 0 75 0 0 225 0 225 -75 0 -75 0 0 -225z"/>
</g>
</svg>
