<?xml version="1.0" encoding="UTF-8" standalone="no"?>
<svg
   xmlns:dc="http://purl.org/dc/elements/1.1/"
   xmlns:cc="http://creativecommons.org/ns#"
   xmlns:rdf="http://www.w3.org/1999/02/22-rdf-syntax-ns#"
   xmlns:svg="http://www.w3.org/2000/svg"
   xmlns="http://www.w3.org/2000/svg"
   width="773.92645mm"
   height="212.06915mm"
   viewBox="0 0 773.92645 212.06916"
   version="1.1"
   id="svg1345">
  <defs
     id="defs1339" />
  <metadata
     id="metadata1342">
    <rdf:RDF>
      <cc:Work
         rdf:about="">
        <dc:format>image/svg+xml</dc:format>
        <dc:type
           rdf:resource="http://purl.org/dc/dcmitype/StillImage" />
        <dc:title></dc:title>
      </cc:Work>
    </rdf:RDF>
  </metadata>
  <path
     id="path1101"
     style="fill:#66acac;fill-opacity:1;stroke:none;stroke-width:0.264583px;stroke-linecap:butt;stroke-linejoin:miter;stroke-opacity:1"
     d="m 117.5327,34.81496 c -0.58348,-0.004 -1.17146,-0.0168 -1.76424,-0.0393 C 86.746926,33.67698 67.461816,10.73102 59.993576,0 H 171.91233 c -3.57709,6.31039 -21.64887,35.02376 -54.37963,34.81493 z" />
  <path
     id="path1160"
     style="fill:#f7fdf6;fill-opacity:1;stroke:none;stroke-width:0.264583px;stroke-linecap:butt;stroke-linejoin:miter;stroke-opacity:1"
     d="m 132.40673,24.53858 -35.384924,-0.32401 0.5276,-1.34824 0.65733,-2.71043 c 0,0 -8.67542,-8.27806 -10.14666,-20.15587 h 53.370904 c -0.69839,6.35384 -3.43183,13.58542 -10.09655,20.95531 z" />
  <path
     id="rect963"
     style="fill:#f7fdf6;fill-opacity:1;stroke:#266c19;stroke-width:1.10968;stroke-linecap:round"
     d="m 367.92927,195.44066 c -15.61813,0 -28.19193,-11.43662 -28.19193,-25.64288 V 125.93534 L 230.22527,67.49676 340.25833,79.5542 c 2.51907,-11.82506 13.9128,-20.70107 27.67094,-20.70107 h 377.25044 c 15.6181,0 28.1919,11.43714 28.1919,25.6434 v 85.30125 c 0,14.20626 -12.5738,25.64288 -28.1919,25.64288 z" />
  <g
     aria-label="see what's new"
     id="text970"
     style="font-weight:bold;font-size:70.5556px;line-height:1.25;font-family:sans-serif;-inkscape-font-specification:'sans-serif Bold';letter-spacing:0px;word-spacing:0px;fill:#337627;fill-opacity:1;stroke-width:0.264583">
    <path
       d="m 393.57677,119.0581 q 0.0689,-1.92926 -2.37711,-1.92926 h -4.30638 q -2.96278,0.0345 -2.68717,4.03077 0.0689,1.03353 0.0689,1.86035 0,2.58382 2.61827,2.58382 h 6.02893 q 3.10058,0 4.99539,2.20486 1.92925,2.20487 1.92925,5.271 v 4.61644 q 0,3.16949 -2.06706,5.44325 -2.06705,2.23931 -5.20209,2.23931 h -7.57922 q -3.37619,0 -5.271,-2.17041 -1.92925,-2.17041 -1.92925,-5.54661 h 5.92556 q -0.0689,1.20579 0.58567,1.72255 0.68902,0.48232 1.79145,0.48232 h 4.99539 q 2.61828,0 2.61828,-2.58383 v -3.44509 q 0,-2.68718 -2.61828,-2.68718 h -5.68441 q -3.13504,0 -5.20209,-1.96371 -2.06706,-1.9637 -2.06706,-5.06429 v -5.02984 q 0,-3.10059 1.92925,-5.30545 1.92926,-2.20487 4.99539,-2.20487 h 7.40696 q 3.16949,0 5.09875,2.10151 1.92925,2.10151 1.92925,5.37436 z"
       style="font-style:normal;font-variant:normal;font-weight:normal;font-stretch:normal;font-size:70.5556px;font-family:Uroob;-inkscape-font-specification:Uroob;fill:#337627;fill-opacity:1;stroke-width:0.264583"
       id="path2535" />
    <path
       d="m 429.13018,137.62717 q -0.10335,5.2021 -4.03076,7.0969 -1.30914,0.62012 -2.99724,0.62012 h -8.16488 q -3.06613,0 -5.06429,-2.20486 -2.03261,-2.20486 -2.03261,-5.30545 v -18.81023 q 0,-3.06614 1.86035,-5.271 1.86036,-2.20487 4.89204,-2.20487 h 8.75055 q 3.06614,0 4.89204,2.34267 1.8259,2.34267 1.8259,5.47771 v 4.47862 q 0,3.03169 -1.6881,5.2021 -1.68809,2.13596 -4.68533,2.13596 h -10.05969 v 6.23563 q 0,2.75608 2.79053,2.75608 h 5.23655 q 1.17134,0 1.86036,-0.65457 0.72347,-0.68902 0.68902,-1.89481 z m -13.71149,-20.73949 q -2.79053,0 -2.79053,2.89389 v 6.30453 h 7.54477 q 1.30914,0 2.20486,-0.72347 0.93018,-0.75793 0.93018,-2.17042 v -3.54845 q 0,-1.44694 -0.93018,-2.10151 -0.89572,-0.65457 -2.20486,-0.65457 z"
       style="font-style:normal;font-variant:normal;font-weight:normal;font-stretch:normal;font-size:70.5556px;font-family:Uroob;-inkscape-font-specification:Uroob;fill:#337627;fill-opacity:1;stroke-width:0.264583"
       id="path2537" />
    <path
       d="m 454.38275,137.62717 q -0.10335,5.2021 -4.03076,7.0969 -1.30914,0.62012 -2.99724,0.62012 h -8.16488 q -3.06614,0 -5.06429,-2.20486 -2.03261,-2.20486 -2.03261,-5.30545 v -18.81023 q 0,-3.06614 1.86035,-5.271 1.86036,-2.20487 4.89204,-2.20487 h 8.75055 q 3.06614,0 4.89204,2.34267 1.8259,2.34267 1.8259,5.47771 v 4.47862 q 0,3.03169 -1.6881,5.2021 -1.6881,2.13596 -4.68533,2.13596 h -10.05969 v 6.23563 q 0,2.75608 2.79053,2.75608 h 5.23655 q 1.17134,0 1.86035,-0.65457 0.72348,-0.68902 0.68902,-1.89481 z m -13.71149,-20.73949 q -2.79053,0 -2.79053,2.89389 v 6.30453 h 7.54477 q 1.30914,0 2.20486,-0.72347 0.93018,-0.75793 0.93018,-2.17042 v -3.54845 q 0,-1.44694 -0.93018,-2.10151 -0.89572,-0.65457 -2.20486,-0.65457 z"
       style="font-style:normal;font-variant:normal;font-weight:normal;font-stretch:normal;font-size:70.5556px;font-family:Uroob;-inkscape-font-specification:Uroob;fill:#337627;fill-opacity:1;stroke-width:0.264583"
       id="path2539" />
    <path
       d="m 494.00138,142.79482 q -2.44602,2.37712 -5.09874,2.37712 h -4.54753 q -3.06614,0 -5.271,-1.99816 -2.20487,-1.99816 -2.20487,-5.06429 v -26.355 h 5.89112 v 25.21811 q 0,1.30914 0.65457,2.23932 0.65457,0.89572 2.10151,0.89572 h 2.61827 q 1.79145,0 2.61828,-1.58474 0.24116,-0.48231 0.24116,-1.03353 v -25.73488 l 5.92556,-0.0345 v 25.83823 q 0,1.10243 0.79238,1.8259 0.82682,0.72347 1.92925,0.72347 h 2.61828 q 1.41249,0 2.13596,-0.89572 0.75792,-0.93018 0.75792,-2.23932 v -25.21811 l 5.89111,-0.0345 v 26.38945 q 0,2.99723 -2.13596,5.02984 -2.13596,2.03261 -5.20209,2.03261 h -4.47863 q -2.85943,0 -5.23655,-2.37712 z"
       style="font-style:normal;font-variant:normal;font-weight:normal;font-stretch:normal;font-size:70.5556px;font-family:Uroob;-inkscape-font-specification:Uroob;fill:#337627;fill-opacity:1;stroke-width:0.264583"
       id="path2541" />
    <path
       d="m 536.96174,145.30974 h -5.89112 v -25.32147 q 0,-1.30913 -0.75792,-2.20486 -0.72347,-0.93018 -2.13596,-0.93018 h -4.34082 q -1.41249,0 -2.41157,1.06798 -1.03353,1.06798 -1.03353,2.41157 v 24.97696 h -5.89112 l -0.0344,-43.89054 h 5.96002 v 11.54107 q 1.27468,-1.20578 2.99723,-1.20578 h 5.51216 q 3.03169,0 5.54661,2.03261 2.48047,2.0326 2.48047,5.06429 z"
       style="font-style:normal;font-variant:normal;font-weight:normal;font-stretch:normal;font-size:70.5556px;font-family:Uroob;-inkscape-font-specification:Uroob;fill:#337627;fill-opacity:1;stroke-width:0.264583"
       id="path2543" />
    <path
       d="m 558.0113,119.78157 q 0,-2.89389 -2.79053,-2.89389 h -6.27008 q -1.03353,0 -1.6192,0.65457 -0.55121,0.62012 -0.58566,1.6192 h -5.92557 q 0.0689,-3.13504 2.03261,-5.30545 1.9637,-2.17041 4.99539,-2.17041 h 9.19841 q 2.96278,0 4.85759,2.13596 1.8948,2.13596 1.8948,5.2021 v 26.32054 h -5.75331 v -1.34359 q -1.86035,1.44695 -3.65181,1.44695 h -5.64996 q -3.13503,0 -5.68441,-2.03261 -2.54937,-2.03261 -2.54937,-4.99539 v -6.54569 q 0,-3.03169 2.54937,-5.06429 2.54938,-2.03261 5.68441,-2.03261 h 6.68349 q 1.37804,0 2.58383,0.75792 z m -0.10336,17.50109 v -4.27192 q 0,-1.30913 -0.75792,-2.20486 -0.72347,-0.93018 -2.13596,-0.93018 h -5.85666 q -1.44695,0 -2.10151,0.93018 -0.65457,0.89573 -0.65457,2.20486 v 4.27192 q 0,1.30914 0.65457,2.23932 0.65456,0.89572 2.10151,0.89572 h 5.85666 q 1.41249,0 2.13596,-0.89572 0.75792,-0.93018 0.75792,-2.23932 z"
       style="font-style:normal;font-variant:normal;font-weight:normal;font-stretch:normal;font-size:70.5556px;font-family:Uroob;-inkscape-font-specification:Uroob;fill:#337627;fill-opacity:1;stroke-width:0.264583"
       id="path2545" />
    <path
       d="m 575.47793,138.21284 q 0,2.54937 2.75608,2.54937 2.79053,0 3.10059,-2.89388 h 1.27469 v 6.23563 q -2.27377,2.06706 -5.30545,2.06706 -5.68442,0 -7.47587,-4.27193 -0.58566,-1.37803 -0.58566,-3.27284 v -20.63613 h -2.51493 v -5.2021 h 2.51493 v -6.58014 h 6.23562 v 6.58014 h 4.75424 v 5.2021 h -4.75424 z"
       style="font-style:normal;font-variant:normal;font-weight:normal;font-stretch:normal;font-size:70.5556px;font-family:Uroob;-inkscape-font-specification:Uroob;fill:#337627;fill-opacity:1;stroke-width:0.264583"
       id="path2547" />
    <path
       d="m 589.87844,99.834451 0.10335,13.745939 h -5.4777 l 0.2067,-13.745939 z"
       style="font-style:normal;font-variant:normal;font-weight:normal;font-stretch:normal;font-size:70.5556px;font-family:Uroob;-inkscape-font-specification:Uroob;fill:#337627;fill-opacity:1;stroke-width:0.264583"
       id="path2549" />
    <path
       d="m 610.51458,119.0581 q 0.0689,-1.92926 -2.37712,-1.92926 h -4.30637 q -2.96278,0.0345 -2.68718,4.03077 0.0689,1.03353 0.0689,1.86035 0,2.58382 2.61827,2.58382 h 6.02892 q 3.10059,0 4.99539,2.20486 1.92926,2.20487 1.92926,5.271 v 4.61644 q 0,3.16949 -2.06706,5.44325 -2.06706,2.23931 -5.2021,2.23931 h -7.57921 q -3.3762,0 -5.271,-2.17041 -1.92926,-2.17041 -1.92926,-5.54661 h 5.92557 q -0.0689,1.20579 0.58567,1.72255 0.68902,0.48232 1.79145,0.48232 h 4.99539 q 2.61827,0 2.61827,-2.58383 v -3.44509 q 0,-2.68718 -2.61827,-2.68718 h -5.68441 q -3.13504,0 -5.2021,-1.96371 -2.06706,-1.9637 -2.06706,-5.06429 v -5.02984 q 0,-3.10059 1.92926,-5.30545 1.92925,-2.20487 4.99539,-2.20487 h 7.40696 q 3.16949,0 5.09874,2.10151 1.92926,2.10151 1.92926,5.37436 z"
       style="font-style:normal;font-variant:normal;font-weight:normal;font-stretch:normal;font-size:70.5556px;font-family:Uroob;-inkscape-font-specification:Uroob;fill:#337627;fill-opacity:1;stroke-width:0.264583"
       id="path2551" />
    <path
       d="m 648.51402,113.75265 q 1.99816,-1.99816 4.03076,-1.99816 h 5.85667 q 2.99724,0 5.16765,2.03261 2.17041,2.0326 2.17041,5.06429 v 26.45835 h -5.89112 v -25.32147 q 0,-1.30913 -0.75792,-2.20486 -0.72347,-0.93018 -2.13596,-0.93018 h -5.02984 q -2.03261,-0.0344 -2.58383,2.51493 -0.1378,0.68901 -0.17225,1.30913 v 24.63245 h -5.89112 l -0.0344,-33.55525 h 5.271 z"
       style="font-style:normal;font-variant:normal;font-weight:normal;font-stretch:normal;font-size:70.5556px;font-family:Uroob;-inkscape-font-specification:Uroob;fill:#337627;fill-opacity:1;stroke-width:0.264583"
       id="path2553" />
    <path
       d="m 691.43993,137.62717 q -0.10335,5.2021 -4.03076,7.0969 -1.30914,0.62012 -2.99723,0.62012 h -8.16489 q -3.06613,0 -5.06429,-2.20486 -2.03261,-2.20486 -2.03261,-5.30545 v -18.81023 q 0,-3.06614 1.86035,-5.271 1.86036,-2.20487 4.89204,-2.20487 h 8.75055 q 3.06614,0 4.89204,2.34267 1.8259,2.34267 1.8259,5.47771 v 4.47862 q 0,3.03169 -1.68809,5.2021 -1.6881,2.13596 -4.68534,2.13596 h -10.05968 v 6.23563 q 0,2.75608 2.79053,2.75608 h 5.23654 q 1.17134,0 1.86036,-0.65457 0.72347,-0.68902 0.68902,-1.89481 z m -13.71148,-20.73949 q -2.79053,0 -2.79053,2.89389 v 6.30453 h 7.54476 q 1.30914,0 2.20486,-0.72347 0.93018,-0.75793 0.93018,-2.17042 v -3.54845 q 0,-1.44694 -0.93018,-2.10151 -0.89572,-0.65457 -2.20486,-0.65457 z"
       style="font-style:normal;font-variant:normal;font-weight:normal;font-stretch:normal;font-size:70.5556px;font-family:Uroob;-inkscape-font-specification:Uroob;fill:#337627;fill-opacity:1;stroke-width:0.264583"
       id="path2555" />
    <path
       d="m 711.5593,142.79482 q -2.44602,2.37712 -5.09874,2.37712 h -4.54753 q -3.06614,0 -5.271,-1.99816 -2.20486,-1.99816 -2.20486,-5.06429 v -26.355 h 5.89111 v 25.21811 q 0,1.30914 0.65457,2.23932 0.65457,0.89572 2.10151,0.89572 h 2.61828 q 1.79145,0 2.61827,-1.58474 0.24116,-0.48231 0.24116,-1.03353 v -25.73488 l 5.92557,-0.0345 v 25.83823 q 0,1.10243 0.79237,1.8259 0.82682,0.72347 1.92925,0.72347 h 2.61828 q 1.41249,0 2.13596,-0.89572 0.75792,-0.93018 0.75792,-2.23932 v -25.21811 l 5.89112,-0.0345 v 26.38945 q 0,2.99723 -2.13596,5.02984 -2.13596,2.03261 -5.2021,2.03261 h -4.47863 q -2.85943,0 -5.23655,-2.37712 z"
       style="font-style:normal;font-variant:normal;font-weight:normal;font-stretch:normal;font-size:70.5556px;font-family:Uroob;-inkscape-font-specification:Uroob;fill:#337627;fill-opacity:1;stroke-width:0.264583"
       id="path2557" />
  </g>
  <path
     style="fill:#ea2e17;fill-opacity:1;stroke:none;stroke-width:0.264583px;stroke-linecap:butt;stroke-linejoin:miter;stroke-opacity:1"
     d="m 50.107586,63.28912 -15.11258,1.26719 c 0,0 -9.63843,28.48981 -5.74363,74.77739 l 7.50431,3.10537 9.93893,-34.86221 6.64856,-31.86734 z"
     id="path915" />
  <path
     style="fill:#3e3438;fill-opacity:1;stroke:none;stroke-width:0.264583px;stroke-linecap:butt;stroke-linejoin:miter;stroke-opacity:1"
     d="m 35.485676,65.57474 c 0,0 -32.8356396,-2.68643 -35.30946956,32.51549 -2.47380004,35.20191 21.76089956,44.37052 31.22260956,42.23865 z"
     id="path917" />
  <path
     style="fill:#3e3438;fill-opacity:1;stroke:none;stroke-width:0.264583px;stroke-linecap:butt;stroke-linejoin:miter;stroke-opacity:1"
     d="m 186.67272,68.74774 c 0,0 31.13925,-6.16128 32.84414,31.26931 1.38518,30.41117 -11.35493,44.39818 -32.28881,40.96191 -16.04188,-2.63326 -0.55533,-72.23122 -0.55533,-72.23122 z"
     id="path923" />
  <path
     id="path917-6"
     style="fill:#e8e62c;fill-opacity:1;stroke:none;stroke-width:0.264583px;stroke-linecap:butt;stroke-linejoin:miter;stroke-opacity:1"
     d="m 12.570956,72.2419 c 0.48771,-0.0977 1.01658,-0.22287 1.47175,-0.30333 1.06434,-0.18816 2.0285,-0.33123 2.84114,-0.43822 1.62534,-0.21398 2.6443,-0.28422 2.6443,-0.28422 -0.35607,0.19756 -0.71464,0.44346 -1.07383,0.7307 -0.3592,0.28724 -0.71906,0.61595 -1.07797,0.97928 -0.71784,0.72664 -1.43208,1.59209 -2.12855,2.54143 -0.69649,0.94936 -1.37509,1.98261 -2.02313,3.04582 -0.64805,1.06321 -1.26508,2.15637 -1.83761,3.22461 -1.14512,2.13648 -2.1123296,4.17411 -2.7931296,5.67769 -0.6808,1.50358 -1.07537,2.47324 -1.07537,2.47324 -0.0871,0.30982 -0.13354,0.69031 -0.14367,1.13171 -0.0101,0.44139 0.0161,0.9437 0.0734,1.49655 0.11462,1.10568 0.35446,2.414 0.68162,3.84472 0.32715,1.43073 0.74168,2.98377 1.2051,4.57853 0.46341,1.59477 0.9757796,3.23136 1.4991196,4.82917 1.0467,3.1956 2.13715,6.23624 2.96572,8.47802 0.82857,2.24181 1.39525,3.68454 1.39525,3.68454 -0.68307,0.006 -1.34239,-0.015 -1.97815,-0.0599 -0.6358,-0.045 -1.24828,-0.11345 -1.83762,-0.20309 -0.58935,-0.0896 -1.15532,-0.20028 -1.6991196,-0.32816 -0.5438,-0.12786 -1.06514,-0.27339 -1.56425,-0.43303 -0.99824,-0.3193 -1.90788,-0.69517 -2.73267,-1.10279 -0.82475,-0.4076 -1.56477,-0.84664 -2.2231,-1.29087 -0.65834,-0.44423 -1.23534,-0.89376 -1.73427,-1.32292 -0.24982,-0.21488 -0.42288,-0.39961 -0.63406996,-0.601 -0.73957,-4.24958 -0.99759,-9.06223 -0.61545,-14.49988 C 1.1107764,84.79454 6.3789964,76.91382 12.570986,72.24195 Z" />
  <path
     style="fill:#ea2e17;fill-opacity:1;stroke:none;stroke-width:0.264583px;stroke-linecap:butt;stroke-linejoin:miter;stroke-opacity:1"
     d="m 171.86516,66.09692 15.12498,0.55913 c 0,0 3.55788,25.69893 0.4032,75.54269 l -17.18245,6.22946 4.16283,-24.18732 z"
     id="path921" />
  <path
     id="path923-9"
     style="fill:#e8e62c;fill-opacity:1;stroke:none;stroke-width:0.264583px;stroke-linecap:butt;stroke-linejoin:miter;stroke-opacity:1"
     d="m 218.02058,119.62378 c -0.16843,0.0608 -0.34203,0.13969 -0.50903,0.19637 -0.68794,0.23347 -1.36324,0.43212 -2.02158,0.60099 -0.65833,0.16888 -1.29974,0.30771 -1.91979,0.42117 -1.24007,0.2269 -2.39516,0.35219 -3.42974,0.41238 -1.0346,0.0602 -1.94897,0.0554 -2.70838,0.0222 -1.51879,-0.0664 -2.41742,-0.2465 -2.41742,-0.2465 0.5283,-0.11605 1.0236,-0.30488 1.48778,-0.55707 0.46416,-0.25219 0.89752,-0.56767 1.30173,-0.9369 0.4042,-0.36922 0.77919,-0.79222 1.12757,-1.25935 0.34838,-0.46713 0.67016,-0.97802 0.96687,-1.52394 0.2967,-0.54591 0.56835,-1.12661 0.81751,-1.73219 0.24918,-0.60558 0.47582,-1.23645 0.68162,-1.88257 0.41158,-1.29226 0.74012,-2.64608 1.00303,-3.98581 0.26292,-1.33972 0.4603,-2.66527 0.60772,-3.8995 0.14743,-1.23423 0.24546,-2.37751 0.31057,-3.35328 0.13026,-1.95156 0.12869,-3.23288 0.12869,-3.23288 0.0666,-0.4444 0.084,-0.93082 0.0579,-1.45211 -0.0262,-0.52129 -0.0959,-1.07769 -0.2031,-1.66191 -0.10715,-0.58423 -0.25153,-1.19615 -0.42788,-1.82935 -0.17632,-0.6332 -0.38436,-1.28773 -0.61804,-1.95595 -0.46739,-1.33646 -1.03759,-2.7289 -1.66346,-4.12171 -0.6259,-1.39282 -1.30747,-2.78573 -1.99729,-4.12327 -0.68985,-1.33753 -1.38821,-2.61985 -2.04742,-3.79046 -0.65921,-1.17062 -1.27929,-2.22972 -1.81333,-3.12178 -1.06807,-1.7841 -1.79112,-2.89956 -1.79112,-2.89956 0.78147,0.14874 1.54676,0.32185 2.29497,0.51521 0.74819,0.19337 1.47923,0.40689 2.1921,0.63769 1.35898,0.43999 2.64118,0.94815 3.86075,1.48622 4.35895,4.70972 7.69813,12.10405 8.22481,23.66728 0.34419,7.55624 -0.18709,14.0936 -1.49601,19.60656 z" />
  <path
     style="fill:#f5cea7;fill-opacity:1;stroke:none;stroke-width:0.264583px;stroke-linecap:butt;stroke-linejoin:miter;stroke-opacity:1"
     d="m 43.916946,106.38593 c -10.38277,41.63504 9.37959,55.985 56.734894,70.06869 48.71619,-8.22231 80.21566,-18.05788 74.97143,-60.64633 C 170.37903,73.21984 172.14668,66.18117 172.14668,66.18117 167.46021,19.64225 112.95401,21.36223 112.95401,21.36223 35.582706,26.42918 53.017236,69.3769 43.916946,106.38593 Z"
     id="path848" />
  <path
     style="color:#000000;font-style:normal;font-variant:normal;font-weight:normal;font-stretch:normal;font-size:medium;line-height:normal;font-family:sans-serif;font-variant-ligatures:normal;font-variant-position:normal;font-variant-caps:normal;font-variant-numeric:normal;font-variant-alternates:normal;font-variant-east-asian:normal;font-feature-settings:normal;font-variation-settings:normal;text-indent:0;text-align:start;text-decoration:none;text-decoration-line:none;text-decoration-style:solid;text-decoration-color:#000000;letter-spacing:normal;word-spacing:normal;text-transform:none;writing-mode:lr-tb;direction:ltr;text-orientation:mixed;dominant-baseline:auto;baseline-shift:baseline;text-anchor:start;white-space:normal;shape-padding:0;shape-margin:0;inline-size:0;clip-rule:nonzero;display:inline;overflow:visible;visibility:visible;isolation:auto;mix-blend-mode:normal;color-interpolation:sRGB;color-interpolation-filters:linearRGB;solid-color:#000000;solid-opacity:1;vector-effect:none;fill:#000000;fill-opacity:1;fill-rule:nonzero;stroke:none;stroke-width:1.02256;stroke-linecap:round;stroke-linejoin:miter;stroke-miterlimit:4;stroke-dasharray:none;stroke-dashoffset:0;stroke-opacity:1;color-rendering:auto;image-rendering:auto;shape-rendering:auto;text-rendering:auto;enable-background:accumulate;stop-color:#000000"
     d="m 73.128516,121.86224 a 6.7669194,5.937977 3.750988 0 1 -2.58755,0.27816 6.7669194,5.937977 3.750988 0 1 -6.37547,-6.35807 l 2.47813,-38.97596 a 6.7669194,5.937977 3.750988 0 1 7.12945,-5.49285 6.7669194,5.937977 3.750988 0 1 6.37547,6.35808 l -2.47813,38.97596 a 6.7669194,5.937977 3.750988 0 1 -4.54189,5.21468 z"
     id="path856" />
  <path
     style="color:#000000;font-style:normal;font-variant:normal;font-weight:normal;font-stretch:normal;font-size:medium;line-height:normal;font-family:sans-serif;font-variant-ligatures:normal;font-variant-position:normal;font-variant-caps:normal;font-variant-numeric:normal;font-variant-alternates:normal;font-variant-east-asian:normal;font-feature-settings:normal;font-variation-settings:normal;text-indent:0;text-align:start;text-decoration:none;text-decoration-line:none;text-decoration-style:solid;text-decoration-color:#000000;letter-spacing:normal;word-spacing:normal;text-transform:none;writing-mode:lr-tb;direction:ltr;text-orientation:mixed;dominant-baseline:auto;baseline-shift:baseline;text-anchor:start;white-space:normal;shape-padding:0;shape-margin:0;inline-size:0;clip-rule:nonzero;display:inline;overflow:visible;visibility:visible;isolation:auto;mix-blend-mode:normal;color-interpolation:sRGB;color-interpolation-filters:linearRGB;solid-color:#000000;solid-opacity:1;vector-effect:none;fill:#000000;fill-opacity:1;fill-rule:nonzero;stroke:none;stroke-width:1.02256;stroke-linecap:round;stroke-linejoin:miter;stroke-miterlimit:4;stroke-dasharray:none;stroke-dashoffset:0;stroke-opacity:1;color-rendering:auto;image-rendering:auto;shape-rendering:auto;text-rendering:auto;enable-background:accumulate;stop-color:#000000"
     d="m 150.5498,121.05834 a 5.937977,6.7669194 88.529235 0 1 -2.5515,0.51251 5.937977,6.7669194 88.529235 0 1 -6.92767,-5.75145 l -1.07938,-39.03974 a 5.937977,6.7669194 88.529235 0 1 6.59996,-6.11891 5.937977,6.7669194 88.529235 0 1 6.92767,5.75145 l 1.07937,39.03974 a 5.937977,6.7669194 88.529235 0 1 -4.04844,5.6064 z"
     id="path862" />
  <ellipse
     style="fill:#f9f7f3;fill-opacity:1;stroke:none;stroke-width:13.6602;stroke-linecap:round;stroke-miterlimit:4;stroke-dasharray:none"
     id="path882"
     cx="82.564819"
     cy="-98.369148"
     rx="3.6379545"
     ry="7.0800481"
     transform="matrix(0.99377513,0.11140463,0.11140463,-0.99377513,0,0)" />
  <ellipse
     style="fill:#f9f7f3;fill-opacity:1;stroke:none;stroke-width:13.6602;stroke-linecap:round;stroke-miterlimit:4;stroke-dasharray:none"
     id="ellipse884"
     cx="142.66339"
     cy="-113.68363"
     rx="3.6379545"
     ry="7.0800481"
     transform="matrix(0.99902654,-0.04411309,-0.04411309,-0.99902654,0,0)" />
  <ellipse
     style="opacity:0.553842;fill:#ed969b;fill-opacity:1;stroke:none;stroke-width:15.875;stroke-linecap:round;stroke-miterlimit:4;stroke-dasharray:none"
     id="path888"
     cx="74.436211"
     cy="-47.893848"
     rx="7.9495945"
     ry="6.170783"
     transform="matrix(0.99417872,0.10774353,0.10774353,-0.99417872,0,0)" />
  <ellipse
     style="opacity:0.553842;fill:#ed969b;fill-opacity:1;stroke:none;stroke-width:15.875;stroke-linecap:round;stroke-miterlimit:4;stroke-dasharray:none"
     id="ellipse910"
     cx="162.16142"
     cy="-2.8677282"
     rx="7.9495945"
     ry="6.170783"
     transform="matrix(0.94272027,0.3335843,0.3335843,-0.94272027,0,0)" />
  <ellipse
     style="fill:#efb781;fill-opacity:1;stroke:none;stroke-width:15.875;stroke-linecap:round;stroke-miterlimit:4;stroke-dasharray:none"
     id="path912"
     cx="110.22328"
     cy="-58.172684"
     rx="4.8666577"
     ry="3.5452731"
     transform="scale(1,-1)" />
  <path
     id="path1124"
     style="color:#000000;font-style:normal;font-variant:normal;font-weight:normal;font-stretch:normal;font-size:medium;line-height:normal;font-family:sans-serif;font-variant-ligatures:normal;font-variant-position:normal;font-variant-caps:normal;font-variant-numeric:normal;font-variant-alternates:normal;font-variant-east-asian:normal;font-feature-settings:normal;font-variation-settings:normal;text-indent:0;text-align:start;text-decoration:none;text-decoration-line:none;text-decoration-style:solid;text-decoration-color:#000000;letter-spacing:normal;word-spacing:normal;text-transform:none;writing-mode:lr-tb;direction:ltr;text-orientation:mixed;dominant-baseline:auto;baseline-shift:baseline;text-anchor:start;white-space:normal;shape-padding:0;shape-margin:0;inline-size:0;clip-rule:nonzero;display:inline;overflow:visible;visibility:visible;isolation:auto;mix-blend-mode:normal;color-interpolation:sRGB;color-interpolation-filters:linearRGB;solid-color:#000000;solid-opacity:1;vector-effect:none;fill:#000000;fill-opacity:1;fill-rule:nonzero;stroke:none;stroke-width:1;stroke-linecap:butt;stroke-linejoin:miter;stroke-miterlimit:4;stroke-dasharray:none;stroke-dashoffset:0;stroke-opacity:1;color-rendering:auto;image-rendering:auto;shape-rendering:auto;text-rendering:auto;enable-background:accumulate;stop-color:#000000"
     d="m 92.776736,56.19594 a 1.4942008,1.4954161 0 0 1 -1.47329,-1.495 1.4942008,1.4954161 0 0 1 0.34674,-0.95757 l -0.19223,0.0558 c 0,0 -1.02575,-3.48916 0.74621,-6.94738 1.77196,-3.45821 6.33334,-6.75281 16.952974,-6.55825 10.60283,0.19425 15.84208,3.11161 18.3105,6.25388 1.23422,1.57113 1.76303,3.18303 1.93374,4.48603 0.0853,0.6515 0.0817,1.22539 0.0331,1.68982 -0.0382,0.36482 -0.0913,0.6458 -0.18552,0.88625 a 1.4942008,1.4954161 0 0 1 0.26355,0.84801 1.4942008,1.4954161 0 0 1 -1.49448,1.495 1.4942008,1.4954161 0 0 1 -1.49397,-1.495 1.4942008,1.4954161 0 0 1 1.49397,-1.49551 1.4942008,1.4954161 0 0 1 0.29972,0.0305 c 0.0246,-0.10796 0.0487,-0.23237 0.0641,-0.37878 0.0396,-0.37781 0.0435,-0.875 -0.031,-1.44333 -0.14892,-1.13665 -0.60707,-2.55819 -1.71515,-3.96875 -2.21614,-2.82111 -7.08224,-5.66049 -17.49815,-5.85132 -10.399124,-0.19052 -14.427424,2.93105 -15.991794,5.98413 -1.31455,2.56553 -0.89742,5.15222 -0.72967,5.92057 a 1.4942008,1.4954161 0 0 1 0.38189,-0.0496 1.4942008,1.4954161 0 0 1 1.49396,1.49552 1.4942008,1.4954161 0 0 1 -1.49396,1.495 1.4942008,1.4954161 0 0 1 -0.0212,0 z" />
  <path
     id="path973-6"
     style="fill:#66acac;fill-opacity:1;stroke:none;stroke-width:0.264583px;stroke-linecap:butt;stroke-linejoin:miter;stroke-opacity:1"
     d="m 100.8539,212.03901 c -56.018134,-8.76582 -83.269104,-23.64248 -59.608774,-84.77415 0.75406,26.17389 21.00879,37.77003 59.406714,49.18976 44.45227,-7.50264 74.56329,-16.35365 75.51065,-50.20055 18.0123,77.49838 -20.59541,86.42434 -75.30859,85.78494 z" />
  <path
     style="fill:#f68415;fill-opacity:1;stroke:none;stroke-width:0.264583px;stroke-linecap:butt;stroke-linejoin:miter;stroke-opacity:1"
     d="m 96.644166,132.75997 58.291444,27.84707 -8.88527,37.57103 c 0,0 -29.81269,14.87318 -43.11332,12.94098 0,0 -20.335914,-6.19381 -23.214894,-14.48587 -2.87898,-8.29206 -10.80466,-32.9403 -10.80466,-32.9403 l 22.23766,-4.75461 z"
     id="path1099" />
  <path
     id="path1099-2"
     style="fill:#e87709;fill-opacity:1;stroke:none;stroke-width:0.264583px;stroke-linecap:butt;stroke-linejoin:miter;stroke-opacity:1"
     d="m 91.251766,158.47838 c 0.16269,1.77927 0.31975,3.6433 0.44492,5.53403 0.13603,2.05423 0.23821,4.11714 0.28112,6.06474 0.043,1.9476 0.0271,3.7799 -0.0739,5.3728 -0.0505,0.79645 -0.12259,1.53292 -0.21858,2.19418 -0.096,0.66127 -0.21595,1.24747 -0.3638,1.74253 -0.14785,0.49507 -0.32311,0.89897 -0.52917,1.19683 -0.10302,0.14893 -0.21402,0.27154 -0.33279,0.36535 -0.1188,0.0938 -0.24556,0.15897 -0.38087,0.19379 -0.27064,0.0696 -0.53281,0.0639 -0.78652,-0.008 -0.25369,-0.0722 -0.49911,-0.21055 -0.73586,-0.40618 -0.23678,-0.19562 -0.46488,-0.44854 -0.68472,-0.74931 -0.21984,-0.30077 -0.43116,-0.64955 -0.63407,-1.03714 -0.40579,-0.77518 -0.77759,-1.70568 -1.1157,-2.71818 -0.33811,-1.0125 -0.64267,-2.10693 -0.9131,-3.21014 -0.27046,-1.10321 -0.50726,-2.21502 -0.71004,-3.26234 -0.2028,-1.04731 -0.37179,-2.03045 -0.50696,-2.87527 -0.27033,-1.68964 -0.40513,-2.82722 -0.40513,-2.82722 l -8.77777,-1.6154 16.3463,-3.49488 z" />
</svg>
